# xmcd
#
# Track frame offsets: 
#        150
#        14622
#        26770
#        42073
#        59101
#        69496
#        85483
#        97421
#        113351
#        123261
#        138584
#        152597
#        173283
#
# Disc length: 2390 seconds
#
# Revision: 0
# Processed by: cddbd v1.4PL0 Copyright (c) Steve Scherf et al.
# Submitted via: ExactAudioCopy v0.90b4
#
DISCID=ac09540d
DTITLE=The Kerry Kearney Band - Welcome To The Psychedelta
DYEAR=2001
DGENRE=Blues
TTITLE0=Memphis High
TTITLE1=Songs From The Levee
TTITLE2=World Train
TTITLE3=Song For Suzanne
TTITLE4=Steve's Blues
TTITLE5=Hair Hang Down
TTITLE6=Went To See The Lord (But He Wasn't Home)
TTITLE7=Kiss Every Woman
TTITLE8=Creole River Blues
TTITLE9=Shortnin Bread
TTITLE10=Long Grey Mare
TTITLE11=Thank You Jesus (For Your Sweet Yesterdays)
TTITLE12=Both Sides Now (Thanks Randy Scruggs)
EXTD=Produced By Kerry Kearney Band and Tom Boland\nRecorded Engineered 
EXTD=& Mixed at MJB Studio Rockaway Beach, New York\nBand: Kerry Kearn
EXTD=ey - Guitar, Dobra, Vocals\n          Frank Celenza - Electric and 
EXTD=accoustic bass\n         Jack Licitra - keyboards, accordian, voc
EXTD=als\n         Charlie Wolfe - harmonica\n         Eileen Murphy -
EXTD=drums\nGuest Musicians: Mark Mancini - piano\n                  
EXTD=Jimmy Fleming - mandolin\n                            J
EXTD=eff Naimoli - percussion\n                            Pete Kierna
EXTD=n - standup dawghouse bass\n                            The Great
EXTD=Sam Taylor - vocal/guitar on "Thank You Jesus"\n\nwww.kerrykearn
EXTD=ey.con
EXTT0=
EXTT1=
EXTT2=
EXTT3=
EXTT4=
EXTT5=
EXTT6=
EXTT7=
EXTT8=
EXTT9=
EXTT10=
EXTT11=
EXTT12=
PLAYORDER=
